<svg xmlns="http://www.w3.org/2000/svg" viewBox="0 0 512 512">
  <defs>
    <linearGradient id="grad1" x1="0%" y1="0%" x2="100%" y2="100%">
      <stop offset="0%" style="stop-color:#6366f1"/>
      <stop offset="100%" style="stop-color:#8b5cf6"/>
    </linearGradient>
  </defs>
  <!-- Background -->
  <rect width="512" height="512" rx="96" fill="url(#grad1)"/>
  <!-- Open book base -->
  <path d="M96 360 L256 320 L416 360 L416 160 L256 120 L96 160 Z" fill="#fff" opacity="0.95"/>
  <!-- Book spine -->
  <path d="M256 120 L256 320" stroke="#6366f1" stroke-width="4" opacity="0.3"/>
  <!-- Left page lines -->
  <path d="M130 180 L230 160" stroke="#6366f1" stroke-width="6" stroke-linecap="round" opacity="0.2"/>
  <path d="M130 210 L230 190" stroke="#6366f1" stroke-width="6" stroke-linecap="round" opacity="0.2"/>
  <path d="M130 240 L230 220" stroke="#6366f1" stroke-width="6" stroke-linecap="round" opacity="0.2"/>
  <!-- Right page lines -->
  <path d="M282 160 L382 180" stroke="#6366f1" stroke-width="6" stroke-linecap="round" opacity="0.2"/>
  <path d="M282 190 L382 210" stroke="#6366f1" stroke-width="6" stroke-linecap="round" opacity="0.2"/>
  <path d="M282 220 L382 240" stroke="#6366f1" stroke-width="6" stroke-linecap="round" opacity="0.2"/>
  <!-- AI Brain/Circuit above book -->
  <circle cx="256" cy="280" r="50" fill="#fff" stroke="#6366f1" stroke-width="4"/>
  <circle cx="256" cy="280" r="30" fill="none" stroke="#8b5cf6" stroke-width="3"/>
  <circle cx="256" cy="280" r="12" fill="#6366f1"/>
  <!-- Neural connections -->
  <circle cx="220" cy="260" r="6" fill="#8b5cf6"/>
  <circle cx="292" cy="260" r="6" fill="#8b5cf6"/>
  <circle cx="240" cy="310" r="6" fill="#8b5cf6"/>
  <circle cx="272" cy="310" r="6" fill="#8b5cf6"/>
  <line x1="256" y1="280" x2="220" y2="260" stroke="#8b5cf6" stroke-width="2"/>
  <line x1="256" y1="280" x2="292" y2="260" stroke="#8b5cf6" stroke-width="2"/>
  <line x1="256" y1="280" x2="240" y2="310" stroke="#8b5cf6" stroke-width="2"/>
  <line x1="256" y1="280" x2="272" y2="310" stroke="#8b5cf6" stroke-width="2"/>
</svg>
