<svg xmlns="http://www.w3.org/2000/svg" viewBox="0 0 512 512">
  <defs>
    <linearGradient id="grad5" x1="0%" y1="0%" x2="100%" y2="100%">
      <stop offset="0%" style="stop-color:#1e1e2e"/>
      <stop offset="100%" style="stop-color:#2d2d44"/>
    </linearGradient>
    <linearGradient id="accent5" x1="0%" y1="0%" x2="100%" y2="100%">
      <stop offset="0%" style="stop-color:#60a5fa"/>
      <stop offset="50%" style="stop-color:#a78bfa"/>
      <stop offset="100%" style="stop-color:#f472b6"/>
    </linearGradient>
  </defs>
  <!-- Background -->
  <rect width="512" height="512" rx="96" fill="url(#grad5)"/>
  <!-- Abstract document shape -->
  <rect x="140" y="100" width="232" height="312" rx="20" fill="#fff" opacity="0.95"/>
  <!-- Gradient accent bar -->
  <rect x="140" y="100" width="232" height="60" rx="20" fill="url(#accent5)"/>
  <rect x="140" y="130" width="232" height="30" fill="url(#accent5)"/>
  <!-- Content lines -->
  <rect x="170" y="190" width="172" height="16" rx="8" fill="#e2e8f0"/>
  <rect x="170" y="225" width="140" height="16" rx="8" fill="#e2e8f0"/>
  <rect x="170" y="260" width="160" height="16" rx="8" fill="#e2e8f0"/>
  <!-- AI cursor/indicator -->
  <rect x="170" y="310" width="4" height="24" rx="2" fill="url(#accent5)">
    <animate attributeName="opacity" values="1;0.3;1" dur="1s" repeatCount="indefinite"/>
  </rect>
  <rect x="186" y="310" width="100" height="24" rx="12" fill="url(#accent5)" opacity="0.3"/>
  <!-- Floating AI orbs -->
  <circle cx="420" cy="140" r="24" fill="url(#accent5)" opacity="0.8"/>
  <circle cx="92" cy="380" r="18" fill="url(#accent5)" opacity="0.6"/>
  <circle cx="400" cy="400" r="14" fill="url(#accent5)" opacity="0.5"/>
  <!-- Sparkle -->
  <path d="M420 80 L424 92 L436 96 L424 100 L420 112 L416 100 L404 96 L416 92 Z" fill="#fff" opacity="0.9"/>
</svg>
